ply
format ascii 1.0
comment Generated PLY Sphere
obj_info vtkPolyData points and polygons: vtk4.0
element vertex 290
property float x
property float y
property float z
element face 576
property list uchar int vertex_indices
end_header
35.6822 0 93.41719999999999
-35.6822 4.36981e-15 93.41719999999999
35.6822 0 -93.41719999999999
-35.6822 4.36981e-15 -93.41719999999999
5.72016e-15 93.41719999999999 -35.6822
5.72016e-15 93.41719999999999 35.6822
5.72016e-15 -93.41719999999999 -35.6822
5.72016e-15 -93.41719999999999 35.6822
93.41719999999999 35.6822 6.12323e-15
93.41719999999999 -35.6822 6.12323e-15
-93.41719999999999 35.6822 6.12323e-15
-93.41719999999999 -35.6822 6.12323e-15
-57.735 57.735 57.735
57.735 -57.735 57.735
-57.735 -57.735 -57.735
57.735 57.735 -57.735
57.735 57.735 57.735
-57.735 57.735 -57.735
-57.735 -57.735 57.735
57.735 -57.735 -57.735
50 30.9017 80.90170000000001
30.9017 80.90170000000001 50
21.8508 57.2061 79.0569
-30.9017 80.90170000000001 50
-13.5045 35.3553 92.5615
-50 30.9017 80.90170000000001
0.00146319 0 100
-50 -30.9017 80.90170000000001
-30.9017 -80.90170000000001 50
-21.8508 -57.2061 79.0569
30.9017 -80.90170000000001 50
13.5045 -35.3553 92.5615
50 -30.9017 80.90170000000001
50 -30.9017 -80.90170000000001
30.9017 -80.90170000000001 -50
21.8508 -57.2061 -79.0569
-30.9017 -80.90170000000001 -50
-13.5045 -35.3553 -92.5615
-50 -30.9017 -80.90170000000001
0.00146319 0 -100
-50 30.9017 -80.90170000000001
-30.9017 80.90170000000001 -50
-21.8508 57.2061 -79.0569
30.9017 80.90170000000001 -50
13.5045 35.3553 -92.5615
50 30.9017 -80.90170000000001
80.90170000000001 50 30.9017
57.2061 79.0569 21.8508
80.90170000000001 50 -30.9017
35.3553 92.5615 -13.5045
6.12323e-15 100 6.12323e-15
-80.90170000000001 50 -30.9017
-57.2061 79.0569 -21.8508
-80.90170000000001 50 30.9017
-35.3553 92.5615 13.5045
-80.90170000000001 -50 30.9017
-57.2061 -79.0569 21.8508
-80.90170000000001 -50 -30.9017
-35.3553 -92.5615 -13.5045
6.12323e-15 -100 6.12323e-15
80.90170000000001 -50 -30.9017
57.2061 -79.0569 -21.8508
80.90170000000001 -50 30.9017
35.3553 -92.5615 13.5045
79.0569 21.8508 57.2061
92.5615 -13.5045 35.3553
100 0 6.12323e-15
79.0569 -21.8508 -57.2061
92.5615 13.5045 -35.3553
-79.0569 21.8508 -57.2061
-92.5615 -13.5045 -35.3553
-100 1.22465e-14 6.12323e-15
-79.0569 -21.8508 57.2061
-92.5615 13.5045 35.3553
54.9093 45.5297 70.08580000000001
45.5297 70.08580000000001 54.9093
42.5325 58.7785 68.81910000000001
27.1885 71.18040000000001 64.7621
15.1765 88.8451 43.3154
10.3006 80.90170000000001 57.8689
37.5736 43.9919 81.5655
30.9017 26.9672 91.20229999999999
43.3154 15.1765 88.8451
-15.1765 88.8451 43.3154
-6.6548 73.80280000000001 67.148
-24.0773 63.0351 73.80280000000001
-45.5297 70.08580000000001 54.9093
-39.6994 50 76.96720000000001
4.27647 47.4268 87.9341
14.235 16.6667 97.5684
-43.3154 15.1765 88.8451
-18.7592 2.29735e-15 98.2247
-26.2866 16.246 95.1057
-6.41834 16.8034 98.3689
18.7592 0 98.2247
-33.6068 33.6068 87.98390000000001
-54.9093 45.5297 70.08580000000001
-54.9093 -45.5297 70.08580000000001
-45.5297 -70.08580000000001 54.9093
-42.5325 -58.7785 68.81910000000001
-27.1885 -71.18040000000001 64.7621
-15.1765 -88.8451 43.3154
-10.3006 -80.90170000000001 57.8689
-37.5736 -43.9919 81.5655
-30.9017 -26.9672 91.20229999999999
-43.3154 -15.1765 88.8451
15.1765 -88.8451 43.3154
6.6548 -73.80280000000001 67.148
24.0773 -63.0351 73.80280000000001
45.5297 -70.08580000000001 54.9093
39.6994 -50 76.96720000000001
-4.27647 -47.4268 87.9341
-14.235 -16.6667 97.5684
43.3154 -15.1765 88.8451
26.2866 -16.246 95.1057
6.41834 -16.8034 98.3689
33.6068 -33.6068 87.98390000000001
54.9093 -45.5297 70.08580000000001
54.9093 -45.5297 -70.08580000000001
45.5297 -70.08580000000001 -54.9093
42.5325 -58.7785 -68.81910000000001
27.1885 -71.18040000000001 -64.7621
15.1765 -88.8451 -43.3154
10.3006 -80.90170000000001 -57.8689
37.5736 -43.9919 -81.5655
30.9017 -26.9672 -91.20229999999999
43.3154 -15.1765 -88.8451
-15.1765 -88.8451 -43.3154
-6.6548 -73.80280000000001 -67.148
-24.0773 -63.0351 -73.80280000000001
-45.5297 -70.08580000000001 -54.9093
-39.6994 -50 -76.96720000000001
4.27647 -47.4268 -87.9341
14.235 -16.6667 -97.5684
-43.3154 -15.1765 -88.8451
-18.7592 2.29735e-15 -98.2247
-26.2866 -16.246 -95.1057
-6.41834 -16.8034 -98.3689
18.7592 0 -98.2247
-33.6068 -33.6068 -87.98390000000001
-54.9093 -45.5297 -70.08580000000001
-54.9093 45.5297 -70.08580000000001
-45.5297 70.08580000000001 -54.9093
-42.5325 58.7785 -68.81910000000001
-27.1885 71.18040000000001 -64.7621
-15.1765 88.8451 -43.3154
-10.3006 80.90170000000001 -57.8689
-37.5736 43.9919 -81.5655
-30.9017 26.9672 -91.20229999999999
-43.3154 15.1765 -88.8451
15.1765 88.8451 -43.3154
6.6548 73.80280000000001 -67.148
24.0773 63.0351 -73.80280000000001
45.5297 70.08580000000001 -54.9093
39.6994 50 -76.96720000000001
-4.27647 47.4268 -87.9341
-14.235 16.6667 -97.5684
43.3154 15.1765 -88.8451
26.2866 16.246 -95.1057
6.41834 16.8034 -98.3689
33.6068 33.6068 -87.98390000000001
54.9093 45.5297 -70.08580000000001
70.08580000000001 54.9093 45.5297
58.7785 68.81910000000001 42.5325
71.18040000000001 64.7621 27.1885
88.8451 43.3154 15.1765
80.90170000000001 57.8689 10.3006
43.9919 81.5655 37.5736
26.9672 91.20229999999999 30.9017
88.8451 43.3154 -15.1765
73.80280000000001 67.148 -6.6548
63.0351 73.80280000000001 -24.0773
70.08580000000001 54.9093 -45.5297
50 76.96720000000001 -39.6994
47.4268 87.9341 4.27647
16.6667 97.5684 14.235
6.01453e-15 98.2247 -18.7592
16.246 95.1057 -26.2866
16.8034 98.3689 -6.41834
6.01453e-15 98.2247 18.7592
33.6068 87.98390000000001 -33.6068
-70.08580000000001 54.9093 -45.5297
-58.7785 68.81910000000001 -42.5325
-71.18040000000001 64.7621 -27.1885
-88.8451 43.3154 -15.1765
-80.90170000000001 57.8689 -10.3006
-43.9919 81.5655 -37.5736
-26.9672 91.20229999999999 -30.9017
-88.8451 43.3154 15.1765
-73.80280000000001 67.148 6.6548
-63.0351 73.80280000000001 24.0773
-70.08580000000001 54.9093 45.5297
-50 76.96720000000001 39.6994
-47.4268 87.9341 -4.27647
-16.6667 97.5684 -14.235
-16.246 95.1057 26.2866
-16.8034 98.3689 6.41834
-33.6068 87.98390000000001 33.6068
-70.08580000000001 -54.9093 45.5297
-58.7785 -68.81910000000001 42.5325
-71.18040000000001 -64.7621 27.1885
-88.8451 -43.3154 15.1765
-80.90170000000001 -57.8689 10.3006
-43.9919 -81.5655 37.5736
-26.9672 -91.20229999999999 30.9017
-88.8451 -43.3154 -15.1765
-73.80280000000001 -67.148 -6.6548
-63.0351 -73.80280000000001 -24.0773
-70.08580000000001 -54.9093 -45.5297
-50 -76.96720000000001 -39.6994
-47.4268 -87.9341 4.27647
-16.6667 -97.5684 14.235
6.01453e-15 -98.2247 -18.7592
-16.246 -95.1057 -26.2866
-16.8034 -98.3689 -6.41834
6.01453e-15 -98.2247 18.7592
-33.6068 -87.98390000000001 -33.6068
70.08580000000001 -54.9093 -45.5297
58.7785 -68.81910000000001 -42.5325
71.18040000000001 -64.7621 -27.1885
88.8451 -43.3154 -15.1765
80.90170000000001 -57.8689 -10.3006
43.9919 -81.5655 -37.5736
26.9672 -91.20229999999999 -30.9017
88.8451 -43.3154 15.1765
73.80280000000001 -67.148 6.6548
63.0351 -73.80280000000001 24.0773
70.08580000000001 -54.9093 45.5297
50 -76.96720000000001 39.6994
47.4268 -87.9341 -4.27647
16.6667 -97.5684 -14.235
16.246 -95.1057 26.2866
16.8034 -98.3689 6.41834
33.6068 -87.98390000000001 33.6068
68.81910000000001 42.5325 58.7785
64.7621 27.1885 71.18040000000001
57.8689 10.3006 80.90170000000001
81.5655 37.5736 43.9919
91.20229999999999 30.9017 26.9672
67.148 -6.6548 73.80280000000001
73.80280000000001 -24.0773 63.0351
76.96720000000001 -39.6994 50
87.9341 4.27647 47.4268
97.5684 14.235 16.6667
98.2247 -18.7592 6.12323e-15
95.1057 -26.2866 16.246
98.3689 -6.41834 16.8034
98.2247 18.7592 6.12323e-15
87.98390000000001 -33.6068 33.6068
68.81910000000001 -42.5325 -58.7785
64.7621 -27.1885 -71.18040000000001
57.8689 -10.3006 -80.90170000000001
81.5655 -37.5736 -43.9919
91.20229999999999 -30.9017 -26.9672
67.148 6.6548 -73.80280000000001
73.80280000000001 24.0773 -63.0351
76.96720000000001 39.6994 -50
87.9341 -4.27647 -47.4268
97.5684 -14.235 -16.6667
95.1057 26.2866 -16.246
98.3689 6.41834 -16.8034
87.98390000000001 33.6068 -33.6068
-68.81910000000001 42.5325 -58.7785
-64.7621 27.1885 -71.18040000000001
-57.8689 10.3006 -80.90170000000001
-81.5655 37.5736 -43.9919
-91.20229999999999 30.9017 -26.9672
-67.148 -6.6548 -73.80280000000001
-73.80280000000001 -24.0773 -63.0351
-76.96720000000001 -39.6994 -50
-87.9341 4.27647 -47.4268
-97.5684 14.235 -16.6667
-98.2247 -18.7592 6.12323e-15
-95.1057 -26.2866 -16.246
-98.3689 -6.41834 -16.8034
-98.2247 18.7592 6.12323e-15
-87.98390000000001 -33.6068 -33.6068
-68.81910000000001 -42.5325 58.7785
-64.7621 -27.1885 71.18040000000001
-57.8689 -10.3006 80.90170000000001
-81.5655 -37.5736 43.9919
-91.20229999999999 -30.9017 26.9672
-67.148 6.6548 73.80280000000001
-73.80280000000001 24.0773 63.0351
-76.96720000000001 39.6994 50
-87.9341 -4.27647 47.4268
-97.5684 -14.235 16.6667
-95.1057 26.2866 16.246
-98.3689 6.41834 16.8034
-87.98390000000001 33.6068 33.6068
3  16 75 74
3  75 21 76
3  76 20 74
3  75 76 74
3  21 78 77
3  78 5 79
3  79 22 77
3  78 79 77
3  22 81 80
3  81 0 82
3  82 20 80
3  81 82 80
3  21 77 76
3  77 22 80
3  80 20 76
3  77 80 76
3  5 83 79
3  83 23 84
3  84 22 79
3  83 84 79
3  23 86 85
3  86 12 87
3  87 24 85
3  86 87 85
3  24 89 88
3  89 0 81
3  81 22 88
3  89 81 88
3  23 85 84
3  85 24 88
3  88 22 84
3  85 88 84
3  1 91 90
3  91 26 92
3  92 25 90
3  91 92 90
3  26 94 93
3  94 0 89
3  89 24 93
3  94 89 93
3  24 87 95
3  87 12 96
3  96 25 95
3  87 96 95
3  26 93 92
3  93 24 95
3  95 25 92
3  93 95 92
3  18 98 97
3  98 28 99
3  99 27 97
3  98 99 97
3  28 101 100
3  101 7 102
3  102 29 100
3  101 102 100
3  29 104 103
3  104 1 105
3  105 27 103
3  104 105 103
3  28 100 99
3  100 29 103
3  103 27 99
3  100 103 99
3  7 106 102
3  106 30 107
3  107 29 102
3  106 107 102
3  30 109 108
3  109 13 110
3  110 31 108
3  109 110 108
3  31 112 111
3  112 1 104
3  104 29 111
3  112 104 111
3  30 108 107
3  108 31 111
3  111 29 107
3  108 111 107
3  0 94 113
3  94 26 114
3  114 32 113
3  94 114 113
3  26 91 115
3  91 1 112
3  112 31 115
3  91 112 115
3  31 110 116
3  110 13 117
3  117 32 116
3  110 117 116
3  26 115 114
3  115 31 116
3  116 32 114
3  115 116 114
3  19 119 118
3  119 34 120
3  120 33 118
3  119 120 118
3  34 122 121
3  122 6 123
3  123 35 121
3  122 123 121
3  35 125 124
3  125 2 126
3  126 33 124
3  125 126 124
3  34 121 120
3  121 35 124
3  124 33 120
3  121 124 120
3  6 127 123
3  127 36 128
3  128 35 123
3  127 128 123
3  36 130 129
3  130 14 131
3  131 37 129
3  130 131 129
3  37 133 132
3  133 2 125
3  125 35 132
3  133 125 132
3  36 129 128
3  129 37 132
3  132 35 128
3  129 132 128
3  3 135 134
3  135 39 136
3  136 38 134
3  135 136 134
3  39 138 137
3  138 2 133
3  133 37 137
3  138 133 137
3  37 131 139
3  131 14 140
3  140 38 139
3  131 140 139
3  39 137 136
3  137 37 139
3  139 38 136
3  137 139 136
3  17 142 141
3  142 41 143
3  143 40 141
3  142 143 141
3  41 145 144
3  145 4 146
3  146 42 144
3  145 146 144
3  42 148 147
3  148 3 149
3  149 40 147
3  148 149 147
3  41 144 143
3  144 42 147
3  147 40 143
3  144 147 143
3  4 150 146
3  150 43 151
3  151 42 146
3  150 151 146
3  43 153 152
3  153 15 154
3  154 44 152
3  153 154 152
3  44 156 155
3  156 3 148
3  148 42 155
3  156 148 155
3  43 152 151
3  152 44 155
3  155 42 151
3  152 155 151
3  2 138 157
3  138 39 158
3  158 45 157
3  138 158 157
3  39 135 159
3  135 3 156
3  156 44 159
3  135 156 159
3  44 154 160
3  154 15 161
3  161 45 160
3  154 161 160
3  39 159 158
3  159 44 160
3  160 45 158
3  159 160 158
3  16 162 75
3  162 46 163
3  163 21 75
3  162 163 75
3  46 165 164
3  165 8 166
3  166 47 164
3  165 166 164
3  47 168 167
3  168 5 78
3  78 21 167
3  168 78 167
3  46 164 163
3  164 47 167
3  167 21 163
3  164 167 163
3  8 169 166
3  169 48 170
3  170 47 166
3  169 170 166
3  48 172 171
3  172 15 173
3  173 49 171
3  172 173 171
3  49 175 174
3  175 5 168
3  168 47 174
3  175 168 174
3  48 171 170
3  171 49 174
3  174 47 170
3  171 174 170
3  4 176 150
3  176 50 177
3  177 43 150
3  176 177 150
3  50 179 178
3  179 5 175
3  175 49 178
3  179 175 178
3  49 173 180
3  173 15 153
3  153 43 180
3  173 153 180
3  50 178 177
3  178 49 180
3  180 43 177
3  178 180 177
3  17 181 142
3  181 51 182
3  182 41 142
3  181 182 142
3  51 184 183
3  184 10 185
3  185 52 183
3  184 185 183
3  52 187 186
3  187 4 145
3  145 41 186
3  187 145 186
3  51 183 182
3  183 52 186
3  186 41 182
3  183 186 182
3  10 188 185
3  188 53 189
3  189 52 185
3  188 189 185
3  53 191 190
3  191 12 192
3  192 54 190
3  191 192 190
3  54 194 193
3  194 4 187
3  187 52 193
3  194 187 193
3  53 190 189
3  190 54 193
3  193 52 189
3  190 193 189
3  5 179 83
3  179 50 195
3  195 23 83
3  179 195 83
3  50 176 196
3  176 4 194
3  194 54 196
3  176 194 196
3  54 192 197
3  192 12 86
3  86 23 197
3  192 86 197
3  50 196 195
3  196 54 197
3  197 23 195
3  196 197 195
3  18 198 98
3  198 55 199
3  199 28 98
3  198 199 98
3  55 201 200
3  201 11 202
3  202 56 200
3  201 202 200
3  56 204 203
3  204 7 101
3  101 28 203
3  204 101 203
3  55 200 199
3  200 56 203
3  203 28 199
3  200 203 199
3  11 205 202
3  205 57 206
3  206 56 202
3  205 206 202
3  57 208 207
3  208 14 209
3  209 58 207
3  208 209 207
3  58 211 210
3  211 7 204
3  204 56 210
3  211 204 210
3  57 207 206
3  207 58 210
3  210 56 206
3  207 210 206
3  6 212 127
3  212 59 213
3  213 36 127
3  212 213 127
3  59 215 214
3  215 7 211
3  211 58 214
3  215 211 214
3  58 209 216
3  209 14 130
3  130 36 216
3  209 130 216
3  59 214 213
3  214 58 216
3  216 36 213
3  214 216 213
3  19 217 119
3  217 60 218
3  218 34 119
3  217 218 119
3  60 220 219
3  220 9 221
3  221 61 219
3  220 221 219
3  61 223 222
3  223 6 122
3  122 34 222
3  223 122 222
3  60 219 218
3  219 61 222
3  222 34 218
3  219 222 218
3  9 224 221
3  224 62 225
3  225 61 221
3  224 225 221
3  62 227 226
3  227 13 228
3  228 63 226
3  227 228 226
3  63 230 229
3  230 6 223
3  223 61 229
3  230 223 229
3  62 226 225
3  226 63 229
3  229 61 225
3  226 229 225
3  7 215 106
3  215 59 231
3  231 30 106
3  215 231 106
3  59 212 232
3  212 6 230
3  230 63 232
3  212 230 232
3  63 228 233
3  228 13 109
3  109 30 233
3  228 109 233
3  59 232 231
3  232 63 233
3  233 30 231
3  232 233 231
3  16 74 162
3  74 20 234
3  234 46 162
3  74 234 162
3  20 82 235
3  82 0 236
3  236 64 235
3  82 236 235
3  64 238 237
3  238 8 165
3  165 46 237
3  238 165 237
3  20 235 234
3  235 64 237
3  237 46 234
3  235 237 234
3  0 113 236
3  113 32 239
3  239 64 236
3  113 239 236
3  32 117 240
3  117 13 241
3  241 65 240
3  117 241 240
3  65 243 242
3  243 8 238
3  238 64 242
3  243 238 242
3  32 240 239
3  240 65 242
3  242 64 239
3  240 242 239
3  9 244 224
3  244 66 245
3  245 62 224
3  244 245 224
3  66 247 246
3  247 8 243
3  243 65 246
3  247 243 246
3  65 241 248
3  241 13 227
3  227 62 248
3  241 227 248
3  66 246 245
3  246 65 248
3  248 62 245
3  246 248 245
3  19 118 217
3  118 33 249
3  249 60 217
3  118 249 217
3  33 126 250
3  126 2 251
3  251 67 250
3  126 251 250
3  67 253 252
3  253 9 220
3  220 60 252
3  253 220 252
3  33 250 249
3  250 67 252
3  252 60 249
3  250 252 249
3  2 157 251
3  157 45 254
3  254 67 251
3  157 254 251
3  45 161 255
3  161 15 256
3  256 68 255
3  161 256 255
3  68 258 257
3  258 9 253
3  253 67 257
3  258 253 257
3  45 255 254
3  255 68 257
3  257 67 254
3  255 257 254
3  8 247 169
3  247 66 259
3  259 48 169
3  247 259 169
3  66 244 260
3  244 9 258
3  258 68 260
3  244 258 260
3  68 256 261
3  256 15 172
3  172 48 261
3  256 172 261
3  66 260 259
3  260 68 261
3  261 48 259
3  260 261 259
3  17 141 181
3  141 40 262
3  262 51 181
3  141 262 181
3  40 149 263
3  149 3 264
3  264 69 263
3  149 264 263
3  69 266 265
3  266 10 184
3  184 51 265
3  266 184 265
3  40 263 262
3  263 69 265
3  265 51 262
3  263 265 262
3  3 134 264
3  134 38 267
3  267 69 264
3  134 267 264
3  38 140 268
3  140 14 269
3  269 70 268
3  140 269 268
3  70 271 270
3  271 10 266
3  266 69 270
3  271 266 270
3  38 268 267
3  268 70 270
3  270 69 267
3  268 270 267
3  11 272 205
3  272 71 273
3  273 57 205
3  272 273 205
3  71 275 274
3  275 10 271
3  271 70 274
3  275 271 274
3  70 269 276
3  269 14 208
3  208 57 276
3  269 208 276
3  71 274 273
3  274 70 276
3  276 57 273
3  274 276 273
3  18 97 198
3  97 27 277
3  277 55 198
3  97 277 198
3  27 105 278
3  105 1 279
3  279 72 278
3  105 279 278
3  72 281 280
3  281 11 201
3  201 55 280
3  281 201 280
3  27 278 277
3  278 72 280
3  280 55 277
3  278 280 277
3  1 90 279
3  90 25 282
3  282 72 279
3  90 282 279
3  25 96 283
3  96 12 284
3  284 73 283
3  96 284 283
3  73 286 285
3  286 11 281
3  281 72 285
3  286 281 285
3  25 283 282
3  283 73 285
3  285 72 282
3  283 285 282
3  10 275 188
3  275 71 287
3  287 53 188
3  275 287 188
3  71 272 288
3  272 11 286
3  286 73 288
3  272 286 288
3  73 284 289
3  284 12 191
3  191 53 289
3  284 191 289
3  71 288 287
3  288 73 289
3  289 53 287
3  288 289 287
