ply
format ascii 1.0
comment Generated PLY Sphere
obj_info vtkPolyData points and polygons: vtk4.0
element vertex 266
property float x
property float y
property float z
element face 531
property list uchar int vertex_indices
end_header
54 54 73.58
58.0709 54 73.1521
56.0355 57.5255 73.1521
51.9645 57.5255 73.1521
49.9291 54 73.1521
51.9645 50.4745 73.1521
56.0355 50.4745 73.1521
61.9639 54 71.8872
60.8969 57.982 71.8872
57.982 60.8969 71.8872
54 61.9639 71.8872
50.018 60.8969 71.8872
47.1031 57.982 71.8872
46.0361 54 71.8872
47.1031 50.018 71.8872
50.018 47.1031 71.8872
54 46.0361 71.8872
57.982 47.1031 71.8872
60.8969 50.018 71.8872
65.5088 54 69.8406
63.9669 59.7544 69.8406
59.7544 63.9669 69.8406
54 65.5088 69.8406
48.2456 63.9669 69.8406
44.0331 59.7544 69.8406
42.4912 54 69.8406
44.0331 48.2456 69.8406
48.2456 44.0331 69.8406
54 42.4912 69.8406
59.7544 44.0331 69.8406
63.9669 48.2456 69.8406
68.5508 54 67.1016
68.055 57.766 67.1016
66.6013 61.2754 67.1016
64.289 64.289 67.1016
61.2754 66.6013 67.1016
57.766 68.055 67.1016
54 68.5508 67.1016
50.234 68.055 67.1016
46.7246 66.6013 67.1016
43.711 64.289 67.1016
41.3987 61.2754 67.1016
39.945 57.766 67.1016
39.4492 54 67.1016
39.945 50.234 67.1016
41.3987 46.7246 67.1016
43.711 43.711 67.1016
46.7246 41.3987 67.1016
50.234 39.945 67.1016
54 39.4492 67.1016
57.766 39.945 67.1016
61.2754 41.3987 67.1016
64.289 43.711 67.1016
66.6013 46.7246 67.1016
68.055 50.234 67.1016
70.9568 54 63.79
70.379 58.3887 63.79
68.685 62.4784 63.79
65.9903 65.9903 63.79
62.4784 68.685 63.79
58.3887 70.379 63.79
54 70.9568 63.79
49.6113 70.379 63.79
45.5216 68.685 63.79
42.0097 65.9903 63.79
39.315 62.4784 63.79
37.621 58.3887 63.79
37.0432 54 63.79
37.621 49.6113 63.79
39.315 45.5216 63.79
42.0097 42.0097 63.79
45.5216 39.315 63.79
49.6113 37.621 63.79
54 37.0432 63.79
58.3887 37.621 63.79
62.4784 39.315 63.79
65.9903 42.0097 63.79
68.685 45.5216 63.79
70.379 49.6113 63.79
72.6217 54 60.0506
71.9872 58.8196 60.0506
70.1269 63.3108 60.0506
67.1675 67.1675 60.0506
63.3108 70.1269 60.0506
58.8196 71.9872 60.0506
54 72.6217 60.0506
49.1804 71.9872 60.0506
44.6892 70.1269 60.0506
40.8325 67.1675 60.0506
37.8731 63.3108 60.0506
36.0128 58.8196 60.0506
35.3783 54 60.0506
36.0128 49.1804 60.0506
37.8731 44.6892 60.0506
40.8325 40.8325 60.0506
44.6892 37.8731 60.0506
49.1804 36.0128 60.0506
54 35.3783 60.0506
58.8196 36.0128 60.0506
63.3108 37.8731 60.0506
67.1675 40.8325 60.0506
70.1269 44.6892 60.0506
71.9872 49.1804 60.0506
73.4727 54 56.0467
72.8092 59.0399 56.0467
70.8639 63.7364 56.0467
67.7693 67.7693 56.0467
63.7364 70.8639 56.0467
59.0399 72.8092 56.0467
54 73.4727 56.0467
48.9601 72.8092 56.0467
44.2636 70.8639 56.0467
40.2307 67.7693 56.0467
37.1361 63.7364 56.0467
35.1908 59.0399 56.0467
34.5273 54 56.0467
35.1908 48.9601 56.0467
37.1361 44.2636 56.0467
40.2307 40.2307 56.0467
44.2636 37.1361 56.0467
48.9601 35.1908 56.0467
54 34.5273 56.0467
59.0399 35.1908 56.0467
63.7364 37.1361 56.0467
67.7693 40.2307 56.0467
70.8639 44.2636 56.0467
72.8092 48.9601 56.0467
73.4727 54 51.9533
72.8092 59.0399 51.9533
70.8639 63.7364 51.9533
67.7693 67.7693 51.9533
63.7364 70.8639 51.9533
59.0399 72.8092 51.9533
54 73.4727 51.9533
48.9601 72.8092 51.9533
44.2636 70.8639 51.9533
40.2307 67.7693 51.9533
37.1361 63.7364 51.9533
35.1908 59.0399 51.9533
34.5273 54 51.9533
35.1908 48.9601 51.9533
37.1361 44.2636 51.9533
40.2307 40.2307 51.9533
44.2636 37.1361 51.9533
48.9601 35.1908 51.9533
54 34.5273 51.9533
59.0399 35.1908 51.9533
63.7364 37.1361 51.9533
67.7693 40.2307 51.9533
70.8639 44.2636 51.9533
72.8092 48.9601 51.9533
72.6217 54 47.9494
71.9872 58.8196 47.9494
70.1269 63.3108 47.9494
67.1675 67.1675 47.9494
63.3108 70.1269 47.9494
58.8196 71.9872 47.9494
54 72.6217 47.9494
49.1804 71.9872 47.9494
44.6892 70.1269 47.9494
40.8325 67.1675 47.9494
37.8731 63.3108 47.9494
36.0128 58.8196 47.9494
35.3783 54 47.9494
36.0128 49.1804 47.9494
37.8731 44.6892 47.9494
40.8325 40.8325 47.9494
44.6892 37.8731 47.9494
49.1804 36.0128 47.9494
54 35.3783 47.9494
58.8196 36.0128 47.9494
63.3108 37.8731 47.9494
67.1675 40.8325 47.9494
70.1269 44.6892 47.9494
71.9872 49.1804 47.9494
70.9568 54 44.21
70.379 58.3887 44.21
68.685 62.4784 44.21
65.9903 65.9903 44.21
62.4784 68.685 44.21
58.3887 70.379 44.21
54 70.9568 44.21
49.6113 70.379 44.21
45.5216 68.685 44.21
42.0097 65.9903 44.21
39.315 62.4784 44.21
37.621 58.3887 44.21
37.0432 54 44.21
37.621 49.6113 44.21
39.315 45.5216 44.21
42.0097 42.0097 44.21
45.5216 39.315 44.21
49.6113 37.621 44.21
54 37.0432 44.21
58.3887 37.621 44.21
62.4784 39.315 44.21
65.9903 42.0097 44.21
68.685 45.5216 44.21
70.379 49.6113 44.21
68.5508 54 40.8984
68.055 57.766 40.8984
66.6013 61.2754 40.8984
64.289 64.289 40.8984
61.2754 66.6013 40.8984
57.766 68.055 40.8984
54 68.5508 40.8984
50.234 68.055 40.8984
46.7246 66.6013 40.8984
43.711 64.289 40.8984
41.3987 61.2754 40.8984
39.945 57.766 40.8984
39.4492 54 40.8984
39.945 50.234 40.8984
41.3987 46.7246 40.8984
43.711 43.711 40.8984
46.7246 41.3987 40.8984
50.234 39.945 40.8984
54 39.4492 40.8984
57.766 39.945 40.8984
61.2754 41.3987 40.8984
64.289 43.711 40.8984
66.6013 46.7246 40.8984
68.055 50.234 40.8984
65.5088 54 38.1594
65.1167 56.9787 38.1594
63.9669 59.7544 38.1594
62.138 62.138 38.1594
59.7544 63.9669 38.1594
56.9787 65.1167 38.1594
54 65.5088 38.1594
51.0213 65.1167 38.1594
48.2456 63.9669 38.1594
45.862 62.138 38.1594
44.0331 59.7544 38.1594
42.8833 56.9787 38.1594
42.4912 54 38.1594
42.8833 51.0213 38.1594
44.0331 48.2456 38.1594
45.862 45.862 38.1594
48.2456 44.0331 38.1594
51.0213 42.8833 38.1594
54 42.4912 38.1594
56.9787 42.8833 38.1594
59.7544 44.0331 38.1594
62.138 45.862 38.1594
63.9669 48.2456 38.1594
65.1167 51.0213 38.1594
61.9639 54 36.1128
60.8969 57.982 36.1128
57.982 60.8969 36.1128
54 61.9639 36.1128
50.018 60.8969 36.1128
47.1031 57.982 36.1128
46.0361 54 36.1128
47.1031 50.018 36.1128
50.018 47.1031 36.1128
54 46.0361 36.1128
57.982 47.1031 36.1128
60.8969 50.018 36.1128
58.0709 54 34.8479
56.0355 57.5255 34.8479
51.9645 57.5255 34.8479
49.9291 54 34.8479
51.9645 50.4745 34.8479
56.0355 50.4745 34.8479
54 54 34.42
3 0 1 2
3 0 2 3
3 0 3 4
3 0 4 5
3 0 5 6
3 0 6 1
3 1 7 8
3 1 8 2
3 2 8 9
3 2 9 10
3 2 10 3
3 3 10 11
3 3 11 12
3 3 12 4
3 4 12 13
3 4 13 14
3 4 14 5
3 5 14 15
3 5 15 16
3 5 16 6
3 6 16 17
3 6 17 18
3 6 18 1
3 1 18 7
3 7 19 20
3 7 20 8
3 8 20 21
3 8 21 9
3 9 21 22
3 9 22 10
3 10 22 23
3 10 23 11
3 11 23 24
3 11 24 12
3 12 24 25
3 12 25 13
3 13 25 26
3 13 26 14
3 14 26 27
3 14 27 15
3 15 27 28
3 15 28 16
3 16 28 29
3 16 29 17
3 17 29 30
3 17 30 18
3 18 30 19
3 18 19 7
3 19 31 32
3 19 32 20
3 20 32 33
3 20 33 34
3 20 34 21
3 21 34 35
3 21 35 36
3 21 36 22
3 22 36 37
3 22 37 38
3 22 38 23
3 23 38 39
3 23 39 40
3 23 40 24
3 24 40 41
3 24 41 42
3 24 42 25
3 25 42 43
3 25 43 44
3 25 44 26
3 26 44 45
3 26 45 46
3 26 46 27
3 27 46 47
3 27 47 48
3 27 48 28
3 28 48 49
3 28 49 50
3 28 50 29
3 29 50 51
3 29 51 52
3 29 52 30
3 30 52 53
3 30 53 54
3 30 54 19
3 19 54 31
3 31 55 56
3 31 56 32
3 32 56 57
3 32 57 33
3 33 57 58
3 33 58 34
3 34 58 59
3 34 59 35
3 35 59 60
3 35 60 36
3 36 60 61
3 36 61 37
3 37 61 62
3 37 62 38
3 38 62 63
3 38 63 39
3 39 63 64
3 39 64 40
3 40 64 65
3 40 65 41
3 41 65 66
3 41 66 42
3 42 66 67
3 42 67 43
3 43 67 68
3 43 68 44
3 44 68 69
3 44 69 45
3 45 69 70
3 45 70 46
3 46 70 71
3 46 71 47
3 47 71 72
3 47 72 48
3 48 72 73
3 48 73 49
3 49 73 74
3 49 74 50
3 50 74 75
3 50 75 51
3 51 75 76
3 51 76 52
3 52 76 77
3 52 77 53
3 53 77 78
3 53 78 54
3 54 78 55
3 54 55 31
3 55 79 80
3 55 80 56
3 56 80 81
3 56 81 57
3 57 81 82
3 57 82 58
3 58 82 83
3 58 83 59
3 59 83 84
3 59 84 60
3 60 84 85
3 60 85 61
3 61 85 86
3 61 86 62
3 62 86 87
3 62 87 63
3 63 87 88
3 63 88 64
3 64 88 89
3 64 89 65
3 65 89 90
3 65 90 66
3 66 90 91
3 66 91 67
3 67 91 92
3 67 92 68
3 68 92 93
3 68 93 69
3 69 93 94
3 69 94 70
3 70 94 95
3 70 95 71
3 71 95 96
3 71 96 72
3 72 96 97
3 72 97 73
3 73 97 98
3 73 98 74
3 74 98 99
3 74 99 75
3 75 99 100
3 75 100 76
3 76 100 101
3 76 101 77
3 77 101 102
3 77 102 78
3 78 102 79
3 78 79 55
3 79 103 104
3 79 104 80
3 80 104 105
3 80 105 81
3 81 105 106
3 81 106 82
3 82 106 107
3 82 107 83
3 83 107 108
3 83 108 84
3 84 108 109
3 84 109 85
3 85 109 110
3 85 110 86
3 86 110 111
3 86 111 87
3 87 111 112
3 87 112 88
3 88 112 113
3 88 113 89
3 89 113 114
3 89 114 90
3 90 114 115
3 90 115 91
3 91 115 116
3 91 116 92
3 92 116 117
3 92 117 93
3 93 117 118
3 93 118 94
3 94 118 119
3 94 119 95
3 95 119 120
3 95 120 96
3 96 120 121
3 96 121 97
3 97 121 122
3 97 122 98
3 98 122 123
3 98 123 99
3 99 123 124
3 99 124 100
3 100 124 125
3 100 125 101
3 101 125 126
3 101 126 102
3 102 126 103
3 102 103 79
3 103 127 128
3 103 128 104
3 104 128 129
3 104 129 105
3 105 129 130
3 105 130 106
3 106 130 131
3 106 131 107
3 107 131 132
3 107 132 108
3 108 132 133
3 108 133 109
3 109 133 134
3 109 134 110
3 110 134 135
3 110 135 111
3 111 135 136
3 111 136 112
3 112 136 137
3 112 137 113
3 113 137 138
3 113 138 114
3 114 138 139
3 114 139 115
3 115 139 140
3 115 140 116
3 116 140 141
3 116 141 117
3 117 141 142
3 117 142 118
3 118 142 143
3 118 143 119
3 119 143 144
3 119 144 120
3 120 144 145
3 120 145 121
3 121 145 146
3 121 146 122
3 122 146 147
3 122 147 123
3 123 147 148
3 123 148 124
3 124 148 149
3 124 149 125
3 125 149 150
3 125 150 126
3 126 150 127
3 126 127 103
3 127 151 152
3 127 152 128
3 128 152 153
3 128 153 129
3 129 153 154
3 129 154 130
3 130 154 155
3 130 155 131
3 131 155 156
3 131 156 132
3 132 156 157
3 132 157 133
3 133 157 158
3 133 158 134
3 134 158 159
3 134 159 135
3 135 159 160
3 135 160 136
3 136 160 161
3 136 161 137
3 137 161 162
3 137 162 138
3 138 162 163
3 138 163 139
3 139 163 164
3 139 164 140
3 140 164 165
3 140 165 141
3 141 165 166
3 141 166 142
3 142 166 167
3 142 167 143
3 143 167 168
3 143 168 144
3 144 168 169
3 144 169 145
3 145 169 170
3 145 170 146
3 146 170 171
3 146 171 147
3 147 171 172
3 147 172 148
3 148 172 173
3 148 173 149
3 149 173 174
3 149 174 150
3 150 174 151
3 150 151 127
3 151 175 176
3 151 176 152
3 152 176 177
3 152 177 153
3 153 177 178
3 153 178 154
3 154 178 179
3 154 179 155
3 155 179 180
3 155 180 156
3 156 180 181
3 156 181 157
3 157 181 182
3 157 182 158
3 158 182 183
3 158 183 159
3 159 183 184
3 159 184 160
3 160 184 185
3 160 185 161
3 161 185 186
3 161 186 162
3 162 186 187
3 162 187 163
3 163 187 188
3 163 188 164
3 164 188 189
3 164 189 165
3 165 189 190
3 165 190 166
3 166 190 191
3 166 191 167
3 167 191 192
3 167 192 168
3 168 192 193
3 168 193 169
3 169 193 194
3 169 194 170
3 170 194 195
3 170 195 171
3 171 195 196
3 171 196 172
3 172 196 197
3 172 197 173
3 173 197 198
3 173 198 174
3 174 198 175
3 174 175 151
3 175 199 200
3 175 200 176
3 176 200 201
3 176 201 177
3 177 201 202
3 177 202 178
3 178 202 203
3 178 203 179
3 179 203 204
3 179 204 180
3 180 204 205
3 180 205 181
3 181 205 206
3 181 206 182
3 182 206 207
3 182 207 183
3 183 207 208
3 183 208 184
3 184 208 209
3 184 209 185
3 185 209 210
3 185 210 186
3 186 210 211
3 186 211 187
3 187 211 212
3 187 212 188
3 188 212 213
3 188 213 189
3 189 213 214
3 189 214 190
3 190 214 215
3 190 215 191
3 191 215 216
3 191 216 192
3 192 216 217
3 192 217 193
3 193 217 218
3 193 218 194
3 194 218 219
3 194 219 195
3 195 219 220
3 195 220 196
3 196 220 221
3 196 221 197
3 197 221 222
3 197 222 198
3 198 222 199
3 198 199 175
3 199 223 224
3 199 224 200
3 200 224 225
3 200 225 201
3 201 225 226
3 201 226 202
3 202 226 227
3 202 227 203
3 203 227 228
3 203 228 204
3 204 228 229
3 204 229 205
3 205 229 230
3 205 230 206
3 206 230 231
3 206 231 207
3 207 231 232
3 207 232 208
3 208 232 233
3 208 233 209
3 209 233 234
3 209 234 210
3 210 234 235
3 210 235 211
3 211 235 236
3 211 236 212
3 212 236 237
3 212 237 213
3 213 237 238
3 213 238 214
3 214 238 239
3 214 239 215
3 215 239 240
3 215 240 216
3 216 240 241
3 216 241 217
3 217 241 242
3 217 242 218
3 218 242 243
3 218 243 219
3 219 243 244
3 219 244 220
3 220 244 245
3 220 245 221
3 221 245 246
3 221 246 222
3 222 246 223
3 222 223 199
3 223 247 224
3 247 224 248
3 224 248 225
3 225 248 226
3 248 226 249
3 226 249 227
3 227 249 228
3 249 228 250
3 228 250 229
3 229 250 230
3 250 230 251
3 230 251 231
3 231 251 232
3 251 232 252
3 232 252 233
3 233 252 234
3 252 234 253
3 234 253 235
3 235 253 236
3 253 236 254
3 236 254 237
3 237 254 238
3 254 238 255
3 238 255 239
3 239 255 240
3 255 240 256
3 240 256 241
3 241 256 242
3 256 242 257
3 242 257 243
3 243 257 244
3 257 244 258
3 244 258 245
3 245 258 246
3 258 246 247
3 246 247 223
3 247 259 248
3 259 248 260
3 248 260 249
3 249 260 250
3 260 250 261
3 250 261 251
3 251 261 252
3 261 252 262
3 252 262 253
3 253 262 254
3 262 254 263
3 254 263 255
3 255 263 256
3 263 256 264
3 256 264 257
3 257 264 258
3 264 258 259
3 258 259 247
3 259 265 260
3 265 260 265
3 260 265 261
3 261 265 262
3 265 262 265
3 262 265 263
3 263 265 264
3 265 264 265
3 264 265 259
